<svg width="28" height="28" viewBox="0 0 28 28" fill="none" xmlns="http://www.w3.org/2000/svg">
<path d="M22.1667 3.50012C22.7855 3.50012 23.379 3.74595 23.8166 4.18354C24.2542 4.62112 24.5 5.21462 24.5 5.83346V22.1668C24.5 22.7856 24.2542 23.3791 23.8166 23.8167C23.379 24.2543 22.7855 24.5001 22.1667 24.5001H5.83333C5.21449 24.5001 4.621 24.2543 4.18342 23.8167C3.74583 23.3791 3.5 22.7856 3.5 22.1668V5.83346C3.5 5.21462 3.74583 4.62112 4.18342 4.18354C4.621 3.74595 5.21449 3.50012 5.83333 3.50012H22.1667ZM21.5833 21.5835V15.4001C21.5833 14.3914 21.1826 13.424 20.4694 12.7108C19.7561 11.9975 18.7887 11.5968 17.78 11.5968C16.7883 11.5968 15.6333 12.2035 15.0733 13.1135V11.8185H11.8183V21.5835H15.0733V15.8318C15.0733 14.9335 15.7967 14.1985 16.695 14.1985C17.1282 14.1985 17.5436 14.3705 17.8499 14.6768C18.1563 14.9832 18.3283 15.3986 18.3283 15.8318V21.5835H21.5833ZM8.02667 9.98679C8.54649 9.98679 9.04502 9.78029 9.4126 9.41272C9.78017 9.04515 9.98667 8.54661 9.98667 8.02679C9.98667 6.94179 9.11167 6.05512 8.02667 6.05512C7.50375 6.05512 7.00225 6.26285 6.63249 6.63261C6.26273 7.00237 6.055 7.50387 6.055 8.02679C6.055 9.11179 6.94167 9.98679 8.02667 9.98679ZM9.64833 21.5835V11.8185H6.41667V21.5835H9.64833Z" fill="#808080"/>
</svg>
