<svg width="48" height="48" viewBox="0 0 48 48" fill="none" xmlns="http://www.w3.org/2000/svg">
<path d="M35.49 19.9538C35.49 19.9538 39.9563 25.4813 39.7425 31.575C39.5288 37.6688 36.0563 46.1025 23.7975 46.3838C11.5388 46.6688 6.8475 36.1463 8.56126 28.8112C10.3013 21.36 14.0888 18.96 14.0888 18.96L35.49 19.9538Z" fill="#865C52"/>
<path d="M35.7825 20.3625C35.7825 20.3625 35.7525 19.7288 35.5088 18.96C35.2875 18.255 34.8713 17.5463 34.8713 17.5463C34.8713 17.5463 29.0175 21.4837 28.7888 21.6C28.56 21.7162 21.8663 23.0212 21.3675 22.7925C20.8688 22.56 15.3675 19.6012 14.9438 19.4475C14.52 19.2937 13.9425 17.3325 13.9425 17.3325C13.9425 17.3325 13.3163 18.105 13.0275 19.1662C12.8588 19.7812 12.8663 20.5012 12.8663 20.5012C12.8663 20.5012 12.6188 22.6913 16.905 25.3725C21.2138 28.065 28.8825 27.465 32.595 24.7575C35.4413 22.6762 35.7825 20.3625 35.7825 20.3625Z" fill="#B0B0B0"/>
<path d="M24.2513 12.4462C29.865 12.3825 34.9725 14.8012 35.0475 18.5325C35.115 21.7238 29.3325 24.4538 24.5963 24.4838C18.2513 24.5212 13.6763 21.495 13.6763 18.6C13.6763 15.6787 17.445 12.525 24.2513 12.4462Z" fill="#E0E0E0"/>
<path d="M18.4275 15.795C18.4275 15.795 20.0063 13.9762 24.5588 13.9425C28.8375 13.9087 31.6275 15.4575 31.5637 17.7825C31.4962 20.3775 28.1362 20.7338 28.1362 20.7338L19.47 19.4025L18.4275 15.795Z" fill="#858585"/>
<path d="M19.8412 17.715C19.8412 17.715 21.12 16.605 24.7275 16.605C28.335 16.605 30.3187 17.8163 30.4875 19.0313C30.585 19.7325 30.3862 19.9088 30.3862 19.9088C30.3862 19.9088 28.365 21.4575 24.1875 21.39C20.01 21.3225 19.4025 20.58 19.4025 20.58L19.8412 17.715Z" fill="#96A520"/>
<path d="M21.93 21.6225C21.93 21.6225 16.305 10.7737 15.7987 10.2375C15.2925 9.70125 6.80624 0.671248 6.80624 0.671248L5.52749 1.815L8.05499 4.6125C8.05499 4.6125 14.3212 11.5537 14.4225 11.8537C14.5237 12.1575 17.8237 18.8925 17.9587 19.1287C18.0937 19.365 18.7012 21.7238 18.8362 21.7575C18.9675 21.7912 21.93 21.6225 21.93 21.6225Z" fill="#E0E0E0"/>
<path d="M19.605 20.7112C19.605 20.7112 14.955 11.685 14.685 11.2462C14.415 10.8075 5.76001 1.59749 5.76001 1.59749L5.12251 2.16374C5.12251 2.16374 13.4925 11.475 13.74 11.8162C14.0925 12.3 17.9775 19.9125 17.9775 19.9125C17.9775 19.9125 18.36 20.1862 18.6488 20.3362C19.1738 20.6062 19.605 20.7112 19.605 20.7112Z" fill="#B0B0B0"/>
<path d="M12.6 6.22875C12.7688 6.19125 13.98 7.44 13.9125 7.6425C13.845 7.845 11.9625 9.6225 11.6588 9.72375C11.355 9.825 10.3463 8.54625 10.3125 8.41125C10.2788 8.27625 12.2963 6.29625 12.6 6.22875Z" fill="#B0B0B0"/>
<path d="M12.6675 6.79875C13.0763 6.79875 13.23 7.15125 13.2413 7.5075C13.2525 7.9125 13.0725 8.21625 12.6675 8.21625C12.2625 8.21625 12.0938 7.81125 12.0938 7.47375C12.0938 7.13625 12.2963 6.79875 12.6675 6.79875Z" fill="white"/>
<path d="M35.7338 24.7162C36.2438 24.675 37.845 27.2512 37.9275 30.15C38.0138 33.0487 37.2675 35.1788 36.735 35.2425C36.03 35.3288 35.625 32.985 34.71 31.1512C33.8025 29.3325 32.3025 28.125 32.325 27.57C32.3475 27.015 33.4763 26.5462 34.2 25.95C34.9238 25.3575 35.4075 24.7462 35.7338 24.7162Z" fill="#B78859"/>
</svg>
