<svg width="37" height="110" viewBox="0 0 37 110" fill="none" xmlns="http://www.w3.org/2000/svg">
<path d="M25.4098 3.66556C25.7774 2.33467 24.9964 0.957799 23.6656 0.590221C22.3347 0.222644 20.9578 1.00356 20.5902 2.33444L25.4098 3.66556ZM20.5272 11.9534L18.1174 11.2879L20.5272 11.9534ZM20.7437 98.9862L18.3372 99.6637L20.7437 98.9862ZM21.7775 109.181C22.9818 109.856 24.5055 109.427 25.1807 108.223L36.1833 88.5962C36.8585 87.3918 36.4295 85.8682 35.2251 85.193C34.0208 84.5178 32.4971 84.9468 31.8219 86.1512L22.0418 103.597L4.5962 93.8167C3.39183 93.1415 1.86816 93.5705 1.19298 94.7749C0.517807 95.9792 0.946802 97.5029 2.15117 98.1781L21.7775 109.181ZM20.5902 2.33444L18.1174 11.2879L22.9369 12.619L25.4098 3.66556L20.5902 2.33444ZM18.3372 99.6637L20.5936 107.678L25.4064 106.322L23.1501 98.3087L18.3372 99.6637ZM18.1174 11.2879C10.128 40.215 10.204 70.7767 18.3372 99.6637L23.1501 98.3087C15.2641 70.2996 15.1904 40.6669 22.9369 12.619L18.1174 11.2879Z" fill="#2B52D9"/>
</svg>
