<svg width="858" height="212" viewBox="0 0 858 212" fill="none" xmlns="http://www.w3.org/2000/svg">
<rect width="858" height="212" rx="51" fill="#4261CE"/>
<rect x="116" y="58" width="64" height="64" rx="18" fill="#F6F8FD"/>
<g clip-path="url(#clip0_118_187)">
<path d="M161.8 101.04C161.8 101.04 163.72 101.04 163.72 99.1201C163.72 97.2001 161.8 91.4401 154.12 91.4401C146.44 91.4401 144.52 97.2001 144.52 99.1201C144.52 101.04 146.44 101.04 146.44 101.04H161.8ZM146.482 99.1201C146.468 99.1182 146.454 99.1156 146.44 99.1124C146.442 98.6056 146.761 97.1348 147.899 95.81C148.959 94.5678 150.821 93.3601 154.12 93.3601C157.417 93.3601 159.279 94.5697 160.341 95.81C161.479 97.1348 161.796 98.6075 161.8 99.1124L161.785 99.1163C161.776 99.1178 161.767 99.1191 161.758 99.1201H146.482ZM154.12 87.6001C155.138 87.6001 156.115 87.1956 156.835 86.4754C157.555 85.7553 157.96 84.7786 157.96 83.7601C157.96 82.7417 157.555 81.765 156.835 81.0448C156.115 80.3247 155.138 79.9201 154.12 79.9201C153.102 79.9201 152.125 80.3247 151.405 81.0448C150.685 81.765 150.28 82.7417 150.28 83.7601C150.28 84.7786 150.685 85.7553 151.405 86.4754C152.125 87.1956 153.102 87.6001 154.12 87.6001ZM159.88 83.7601C159.88 84.5165 159.731 85.2655 159.442 85.9644C159.152 86.6632 158.728 87.2982 158.193 87.8331C157.658 88.3679 157.023 88.7922 156.324 89.0817C155.625 89.3711 154.876 89.5201 154.12 89.5201C153.364 89.5201 152.615 89.3711 151.916 89.0817C151.217 88.7922 150.582 88.3679 150.047 87.8331C149.512 87.2982 149.088 86.6632 148.798 85.9644C148.509 85.2655 148.36 84.5165 148.36 83.7601C148.36 82.2325 148.967 80.7674 150.047 79.6872C151.127 78.607 152.592 78.0001 154.12 78.0001C155.648 78.0001 157.113 78.607 158.193 79.6872C159.273 80.7674 159.88 82.2325 159.88 83.7601ZM146.317 91.9777C145.549 91.7359 144.757 91.5769 143.956 91.5035C143.505 91.4606 143.053 91.4395 142.6 91.4401C134.92 91.4401 133 97.2001 133 99.1201C133 100.401 133.639 101.04 134.92 101.04H143.015C142.73 100.441 142.588 99.7836 142.6 99.1201C142.6 97.1809 143.324 95.1995 144.693 93.5444C145.159 92.98 145.703 92.452 146.317 91.9777ZM142.446 93.3601C141.31 95.0675 140.696 97.0692 140.68 99.1201H134.92C134.92 98.6209 135.235 97.1425 136.379 95.81C137.426 94.5889 139.244 93.3985 142.446 93.362V93.3601ZM135.88 84.7201C135.88 83.1925 136.487 81.7274 137.567 80.6472C138.647 79.567 140.112 78.9601 141.64 78.9601C143.168 78.9601 144.633 79.567 145.713 80.6472C146.793 81.7274 147.4 83.1925 147.4 84.7201C147.4 86.2478 146.793 87.7128 145.713 88.7931C144.633 89.8733 143.168 90.4801 141.64 90.4801C140.112 90.4801 138.647 89.8733 137.567 88.7931C136.487 87.7128 135.88 86.2478 135.88 84.7201ZM141.64 80.8801C140.622 80.8801 139.645 81.2847 138.925 82.0048C138.205 82.725 137.8 83.7017 137.8 84.7201C137.8 85.7386 138.205 86.7153 138.925 87.4354C139.645 88.1556 140.622 88.5601 141.64 88.5601C142.658 88.5601 143.635 88.1556 144.355 87.4354C145.075 86.7153 145.48 85.7386 145.48 84.7201C145.48 83.7017 145.075 82.725 144.355 82.0048C143.635 81.2847 142.658 80.8801 141.64 80.8801Z" fill="#2B52D9"/>
</g>
<path d="M120.006 150.179C119.38 150.175 118.768 150.066 118.172 149.853C117.575 149.636 117.038 149.284 116.561 148.798C116.084 148.308 115.704 147.658 115.423 146.849C115.142 146.035 115.003 145.027 115.008 143.825C115.008 142.705 115.127 141.705 115.366 140.827C115.604 139.95 115.947 139.208 116.395 138.603C116.842 137.994 117.381 137.529 118.012 137.21C118.647 136.89 119.356 136.73 120.14 136.73C120.963 136.73 121.692 136.892 122.327 137.216C122.966 137.54 123.481 137.983 123.873 138.545C124.265 139.104 124.508 139.734 124.602 140.438H122.269C122.15 139.935 121.905 139.534 121.534 139.236C121.167 138.933 120.703 138.782 120.14 138.782C119.233 138.782 118.534 139.176 118.044 139.964C117.558 140.753 117.313 141.835 117.309 143.212H117.398C117.607 142.837 117.878 142.515 118.21 142.246C118.542 141.978 118.917 141.771 119.335 141.626C119.757 141.477 120.202 141.403 120.671 141.403C121.438 141.403 122.126 141.586 122.736 141.952C123.349 142.319 123.835 142.824 124.193 143.467C124.551 144.107 124.728 144.839 124.724 145.666C124.728 146.527 124.532 147.3 124.135 147.987C123.739 148.668 123.187 149.205 122.48 149.597C121.773 149.989 120.948 150.183 120.006 150.179ZM119.993 148.261C120.458 148.261 120.873 148.148 121.24 147.923C121.606 147.697 121.896 147.392 122.109 147.009C122.322 146.625 122.427 146.195 122.422 145.717C122.427 145.249 122.324 144.825 122.116 144.445C121.911 144.066 121.628 143.766 121.265 143.544C120.903 143.322 120.49 143.212 120.025 143.212C119.68 143.212 119.358 143.278 119.06 143.41C118.762 143.542 118.502 143.725 118.28 143.96C118.059 144.19 117.884 144.458 117.756 144.765C117.633 145.067 117.569 145.391 117.564 145.737C117.569 146.192 117.675 146.612 117.884 146.996C118.093 147.379 118.381 147.686 118.747 147.916C119.113 148.146 119.529 148.261 119.993 148.261ZM139.729 136.909H142.1V145.462C142.1 146.399 141.879 147.224 141.436 147.935C140.997 148.647 140.379 149.203 139.582 149.604C138.785 150 137.854 150.198 136.789 150.198C135.719 150.198 134.786 150 133.989 149.604C133.192 149.203 132.574 148.647 132.135 147.935C131.696 147.224 131.477 146.399 131.477 145.462V136.909H133.848V145.263C133.848 145.809 133.968 146.295 134.206 146.721C134.449 147.147 134.79 147.482 135.229 147.724C135.668 147.963 136.188 148.082 136.789 148.082C137.389 148.082 137.909 147.963 138.348 147.724C138.791 147.482 139.132 147.147 139.371 146.721C139.61 146.295 139.729 145.809 139.729 145.263V136.909ZM152.336 142.777L150.226 143.007C150.167 142.794 150.062 142.594 149.913 142.406C149.768 142.219 149.572 142.067 149.325 141.952C149.078 141.837 148.775 141.78 148.417 141.78C147.936 141.78 147.531 141.884 147.203 142.093C146.879 142.302 146.719 142.572 146.723 142.905C146.719 143.19 146.824 143.423 147.037 143.602C147.254 143.781 147.612 143.928 148.11 144.043L149.785 144.401C150.714 144.601 151.404 144.918 151.856 145.353C152.312 145.788 152.542 146.357 152.547 147.06C152.542 147.678 152.361 148.223 152.003 148.696C151.65 149.165 151.157 149.531 150.527 149.795C149.896 150.06 149.172 150.192 148.353 150.192C147.152 150.192 146.184 149.94 145.451 149.438C144.718 148.93 144.282 148.225 144.141 147.322L146.397 147.104C146.5 147.548 146.717 147.882 147.049 148.108C147.382 148.334 147.814 148.447 148.347 148.447C148.897 148.447 149.338 148.334 149.67 148.108C150.007 147.882 150.175 147.603 150.175 147.271C150.175 146.989 150.066 146.757 149.849 146.574C149.636 146.391 149.304 146.25 148.852 146.152L147.177 145.8C146.235 145.604 145.539 145.274 145.087 144.81C144.635 144.341 144.412 143.749 144.416 143.033C144.412 142.428 144.576 141.903 144.908 141.46C145.245 141.013 145.711 140.668 146.308 140.425C146.909 140.178 147.601 140.054 148.385 140.054C149.536 140.054 150.441 140.299 151.102 140.789C151.767 141.279 152.178 141.942 152.336 142.777ZM158.801 150.192C157.817 150.192 156.967 149.987 156.251 149.578C155.539 149.165 154.991 148.581 154.608 147.827C154.224 147.068 154.033 146.175 154.033 145.148C154.033 144.138 154.224 143.252 154.608 142.489C154.996 141.722 155.537 141.126 156.232 140.7C156.926 140.269 157.742 140.054 158.68 140.054C159.285 140.054 159.856 140.152 160.393 140.348C160.934 140.54 161.411 140.838 161.825 141.243C162.242 141.648 162.57 142.163 162.809 142.79C163.048 143.412 163.167 144.153 163.167 145.014V145.724H155.119V144.164H160.949C160.945 143.721 160.849 143.327 160.661 142.982C160.474 142.632 160.212 142.357 159.875 142.157C159.543 141.957 159.155 141.857 158.712 141.857C158.239 141.857 157.823 141.972 157.465 142.202C157.107 142.428 156.828 142.726 156.628 143.097C156.432 143.463 156.332 143.866 156.327 144.305V145.666C156.327 146.237 156.432 146.727 156.641 147.136C156.849 147.541 157.141 147.852 157.516 148.07C157.891 148.283 158.33 148.389 158.833 148.389C159.17 148.389 159.474 148.342 159.747 148.249C160.02 148.151 160.256 148.008 160.457 147.82C160.657 147.633 160.808 147.401 160.911 147.124L163.071 147.366C162.935 147.937 162.675 148.436 162.291 148.862C161.912 149.284 161.426 149.612 160.834 149.847C160.241 150.077 159.564 150.192 158.801 150.192ZM165.124 150V140.182H167.368V141.818H167.47C167.649 141.251 167.956 140.815 168.391 140.508C168.83 140.197 169.33 140.041 169.893 140.041C170.021 140.041 170.164 140.048 170.321 140.06C170.483 140.069 170.617 140.084 170.724 140.105V142.234C170.626 142.2 170.47 142.17 170.257 142.144C170.048 142.114 169.846 142.099 169.65 142.099C169.228 142.099 168.849 142.191 168.512 142.374C168.18 142.553 167.918 142.803 167.726 143.122C167.534 143.442 167.438 143.81 167.438 144.228V150H165.124ZM180.021 142.777L177.912 143.007C177.852 142.794 177.748 142.594 177.599 142.406C177.454 142.219 177.258 142.067 177.01 141.952C176.763 141.837 176.461 141.78 176.103 141.78C175.621 141.78 175.216 141.884 174.888 142.093C174.564 142.302 174.405 142.572 174.409 142.905C174.405 143.19 174.509 143.423 174.722 143.602C174.939 143.781 175.297 143.928 175.796 144.043L177.471 144.401C178.4 144.601 179.09 144.918 179.542 145.353C179.998 145.788 180.228 146.357 180.232 147.06C180.228 147.678 180.047 148.223 179.689 148.696C179.335 149.165 178.843 149.531 178.212 149.795C177.581 150.06 176.857 150.192 176.039 150.192C174.837 150.192 173.87 149.94 173.137 149.438C172.404 148.93 171.967 148.225 171.827 147.322L174.083 147.104C174.185 147.548 174.403 147.882 174.735 148.108C175.067 148.334 175.5 148.447 176.032 148.447C176.582 148.447 177.023 148.334 177.356 148.108C177.692 147.882 177.861 147.603 177.861 147.271C177.861 146.989 177.752 146.757 177.535 146.574C177.322 146.391 176.989 146.25 176.537 146.152L174.863 145.8C173.921 145.604 173.224 145.274 172.773 144.81C172.321 144.341 172.097 143.749 172.101 143.033C172.097 142.428 172.261 141.903 172.594 141.46C172.93 141.013 173.397 140.668 173.993 140.425C174.594 140.178 175.287 140.054 176.071 140.054C177.221 140.054 178.127 140.299 178.787 140.789C179.452 141.279 179.863 141.942 180.021 142.777Z" fill="#F2F2F2"/>
<rect x="398" y="58" width="64" height="64" rx="18" fill="#F6F8FD"/>
<g clip-path="url(#clip1_118_187)">
<path d="M433.24 75C433.495 75 433.739 75.1011 433.919 75.2812C434.099 75.4612 434.2 75.7054 434.2 75.96C434.2 76.2146 434.301 76.4588 434.481 76.6388C434.661 76.8189 434.905 76.92 435.16 76.92C435.415 76.92 435.659 77.0211 435.839 77.2012C436.019 77.3812 436.12 77.6254 436.12 77.88V78.84C436.12 79.0946 436.019 79.3388 435.839 79.5188C435.659 79.6989 435.415 79.8 435.16 79.8H425.56C425.305 79.8 425.061 79.6989 424.881 79.5188C424.701 79.3388 424.6 79.0946 424.6 78.84V77.88C424.6 77.6254 424.701 77.3812 424.881 77.2012C425.061 77.0211 425.305 76.92 425.56 76.92C425.815 76.92 426.059 76.8189 426.239 76.6388C426.419 76.4588 426.52 76.2146 426.52 75.96C426.52 75.7054 426.621 75.4612 426.801 75.2812C426.981 75.1011 427.225 75 427.48 75H433.24Z" fill="#2B52D9"/>
<path d="M420.76 79.8C420.76 79.5454 420.861 79.3013 421.041 79.1212C421.221 78.9412 421.465 78.84 421.72 78.84H422.68C422.935 78.84 423.179 78.7389 423.359 78.5589C423.539 78.3788 423.64 78.1347 423.64 77.88C423.64 77.6254 423.539 77.3813 423.359 77.2012C423.179 77.0212 422.935 76.92 422.68 76.92H421.72C420.956 76.92 420.224 77.2235 419.684 77.7636C419.144 78.3037 418.84 79.0362 418.84 79.8V102.84C418.84 103.604 419.144 104.336 419.684 104.877C420.224 105.417 420.956 105.72 421.72 105.72H439C439.764 105.72 440.496 105.417 441.037 104.877C441.577 104.336 441.88 103.604 441.88 102.84V79.8C441.88 79.0362 441.577 78.3037 441.037 77.7636C440.496 77.2235 439.764 76.92 439 76.92H438.04C437.785 76.92 437.541 77.0212 437.361 77.2012C437.181 77.3813 437.08 77.6254 437.08 77.88C437.08 78.1347 437.181 78.3788 437.361 78.5589C437.541 78.7389 437.785 78.84 438.04 78.84H439C439.255 78.84 439.499 78.9412 439.679 79.1212C439.859 79.3013 439.96 79.5454 439.96 79.8V102.84C439.96 103.095 439.859 103.339 439.679 103.519C439.499 103.699 439.255 103.8 439 103.8H421.72C421.465 103.8 421.221 103.699 421.041 103.519C420.861 103.339 420.76 103.095 420.76 102.84V79.8Z" fill="#2B52D9"/>
<path d="M435.84 90.0797C436.02 89.8995 436.121 89.655 436.121 89.4001C436.121 89.1451 436.02 88.9006 435.84 88.7204C435.659 88.5401 435.415 88.4388 435.16 88.4388C434.905 88.4388 434.661 88.5401 434.48 88.7204L429.4 93.8026L427.2 91.6004C427.019 91.4201 426.775 91.3188 426.52 91.3188C426.265 91.3188 426.021 91.4201 425.84 91.6004C425.66 91.7806 425.559 92.0251 425.559 92.2801C425.559 92.535 425.66 92.7795 425.84 92.9597L428.72 95.8397C428.81 95.9291 428.915 96.0001 429.032 96.0485C429.149 96.0969 429.274 96.1218 429.4 96.1218C429.526 96.1218 429.651 96.0969 429.768 96.0485C429.885 96.0001 429.991 95.9291 430.08 95.8397L435.84 90.0797Z" fill="#2B52D9"/>
</g>
<path d="M388.384 150V136.909H396.77V138.897H390.755V142.451H396.195V144.439H390.755V150H388.384ZM402.454 150.192C401.47 150.192 400.62 149.987 399.904 149.578C399.192 149.165 398.645 148.581 398.261 147.827C397.878 147.068 397.686 146.175 397.686 145.148C397.686 144.138 397.878 143.252 398.261 142.489C398.649 141.722 399.19 141.126 399.885 140.7C400.579 140.269 401.396 140.054 402.333 140.054C402.938 140.054 403.509 140.152 404.046 140.348C404.587 140.54 405.065 140.838 405.478 141.243C405.896 141.648 406.224 142.163 406.462 142.79C406.701 143.412 406.82 144.153 406.82 145.014V145.724H398.773V144.164H404.602C404.598 143.721 404.502 143.327 404.315 142.982C404.127 142.632 403.865 142.357 403.528 142.157C403.196 141.957 402.808 141.857 402.365 141.857C401.892 141.857 401.476 141.972 401.119 142.202C400.761 142.428 400.481 142.726 400.281 143.097C400.085 143.463 399.985 143.866 399.981 144.305V145.666C399.981 146.237 400.085 146.727 400.294 147.136C400.503 147.541 400.795 147.852 401.17 148.07C401.545 148.283 401.984 148.389 402.486 148.389C402.823 148.389 403.128 148.342 403.4 148.249C403.673 148.151 403.91 148.008 404.11 147.82C404.31 147.633 404.462 147.401 404.564 147.124L406.724 147.366C406.588 147.937 406.328 148.436 405.945 148.862C405.565 149.284 405.079 149.612 404.487 149.847C403.895 150.077 403.217 150.192 402.454 150.192ZM413.124 150.192C412.14 150.192 411.29 149.987 410.574 149.578C409.862 149.165 409.315 148.581 408.931 147.827C408.548 147.068 408.356 146.175 408.356 145.148C408.356 144.138 408.548 143.252 408.931 142.489C409.319 141.722 409.86 141.126 410.555 140.7C411.249 140.269 412.065 140.054 413.003 140.054C413.608 140.054 414.179 140.152 414.716 140.348C415.257 140.54 415.734 140.838 416.148 141.243C416.565 141.648 416.894 142.163 417.132 142.79C417.371 143.412 417.49 144.153 417.49 145.014V145.724H409.443V144.164H415.272C415.268 143.721 415.172 143.327 414.984 142.982C414.797 142.632 414.535 142.357 414.198 142.157C413.866 141.957 413.478 141.857 413.035 141.857C412.562 141.857 412.146 141.972 411.788 142.202C411.43 142.428 411.151 142.726 410.951 143.097C410.755 143.463 410.655 143.866 410.651 144.305V145.666C410.651 146.237 410.755 146.727 410.964 147.136C411.173 147.541 411.465 147.852 411.84 148.07C412.215 148.283 412.653 148.389 413.156 148.389C413.493 148.389 413.798 148.342 414.07 148.249C414.343 148.151 414.58 148.008 414.78 147.82C414.98 147.633 415.131 147.401 415.234 147.124L417.394 147.366C417.258 147.937 416.998 148.436 416.614 148.862C416.235 149.284 415.749 149.612 415.157 149.847C414.565 150.077 413.887 150.192 413.124 150.192ZM423.091 150.173C422.32 150.173 421.63 149.974 421.02 149.578C420.411 149.182 419.929 148.607 419.576 147.852C419.222 147.098 419.045 146.182 419.045 145.104C419.045 144.013 419.224 143.092 419.582 142.342C419.944 141.588 420.432 141.019 421.046 140.636C421.659 140.248 422.343 140.054 423.098 140.054C423.673 140.054 424.146 140.152 424.517 140.348C424.887 140.54 425.181 140.772 425.399 141.045C425.616 141.313 425.784 141.567 425.904 141.805H426V136.909H428.32V150H426.044V148.453H425.904C425.784 148.692 425.612 148.945 425.386 149.214C425.16 149.478 424.862 149.704 424.491 149.891C424.12 150.079 423.654 150.173 423.091 150.173ZM423.737 148.274C424.227 148.274 424.644 148.142 424.99 147.878C425.335 147.609 425.597 147.237 425.776 146.759C425.955 146.282 426.044 145.726 426.044 145.091C426.044 144.456 425.955 143.904 425.776 143.435C425.601 142.967 425.341 142.602 424.996 142.342C424.655 142.082 424.235 141.952 423.737 141.952C423.221 141.952 422.791 142.087 422.446 142.355C422.1 142.624 421.84 142.994 421.666 143.467C421.491 143.94 421.404 144.482 421.404 145.091C421.404 145.705 421.491 146.252 421.666 146.734C421.845 147.211 422.107 147.588 422.452 147.865C422.801 148.138 423.23 148.274 423.737 148.274ZM430.888 150V136.909H433.202V141.805H433.298C433.417 141.567 433.585 141.313 433.803 141.045C434.02 140.772 434.314 140.54 434.685 140.348C435.055 140.152 435.528 140.054 436.104 140.054C436.862 140.054 437.546 140.248 438.156 140.636C438.769 141.019 439.255 141.588 439.613 142.342C439.975 143.092 440.156 144.013 440.156 145.104C440.156 146.182 439.979 147.098 439.626 147.852C439.272 148.607 438.791 149.182 438.181 149.578C437.572 149.974 436.881 150.173 436.11 150.173C435.548 150.173 435.081 150.079 434.71 149.891C434.34 149.704 434.041 149.478 433.815 149.214C433.594 148.945 433.421 148.692 433.298 148.453H433.163V150H430.888ZM433.157 145.091C433.157 145.726 433.247 146.282 433.426 146.759C433.609 147.237 433.871 147.609 434.212 147.878C434.557 148.142 434.975 148.274 435.465 148.274C435.976 148.274 436.404 148.138 436.749 147.865C437.095 147.588 437.354 147.211 437.529 146.734C437.708 146.252 437.798 145.705 437.798 145.091C437.798 144.482 437.71 143.94 437.536 143.467C437.361 142.994 437.101 142.624 436.756 142.355C436.411 142.087 435.98 141.952 435.465 141.952C434.97 141.952 434.551 142.082 434.205 142.342C433.86 142.602 433.598 142.967 433.419 143.435C433.244 143.904 433.157 144.456 433.157 145.091ZM444.949 150.198C444.327 150.198 443.766 150.087 443.268 149.866C442.773 149.64 442.381 149.308 442.092 148.869C441.806 148.43 441.663 147.888 441.663 147.245C441.663 146.691 441.766 146.233 441.97 145.871C442.175 145.509 442.454 145.219 442.807 145.001C443.161 144.784 443.56 144.62 444.003 144.509C444.45 144.394 444.913 144.311 445.39 144.26C445.965 144.2 446.432 144.147 446.79 144.1C447.148 144.049 447.408 143.972 447.57 143.87C447.736 143.763 447.819 143.599 447.819 143.378V143.339C447.819 142.858 447.676 142.485 447.391 142.221C447.105 141.957 446.694 141.825 446.157 141.825C445.59 141.825 445.141 141.948 444.808 142.195C444.48 142.442 444.258 142.734 444.143 143.071L441.983 142.764C442.153 142.168 442.435 141.669 442.827 141.268C443.219 140.864 443.698 140.561 444.265 140.361C444.832 140.156 445.458 140.054 446.144 140.054C446.617 140.054 447.088 140.109 447.557 140.22C448.025 140.331 448.454 140.514 448.842 140.77C449.229 141.021 449.54 141.364 449.775 141.799C450.013 142.234 450.133 142.777 450.133 143.429V150H447.908V148.651H447.832C447.691 148.924 447.493 149.18 447.237 149.418C446.986 149.653 446.668 149.842 446.285 149.987C445.905 150.128 445.46 150.198 444.949 150.198ZM445.55 148.498C446.014 148.498 446.417 148.406 446.758 148.223C447.099 148.036 447.361 147.788 447.544 147.482C447.731 147.175 447.825 146.84 447.825 146.478V145.321C447.753 145.381 447.629 145.436 447.454 145.487C447.284 145.538 447.092 145.583 446.879 145.621C446.666 145.66 446.455 145.694 446.246 145.724C446.038 145.754 445.856 145.779 445.703 145.8C445.358 145.847 445.049 145.924 444.776 146.031C444.503 146.137 444.288 146.286 444.131 146.478C443.973 146.665 443.894 146.908 443.894 147.207C443.894 147.633 444.05 147.955 444.361 148.172C444.672 148.389 445.068 148.498 445.55 148.498ZM456.742 150.192C455.762 150.192 454.92 149.977 454.217 149.546C453.518 149.116 452.979 148.521 452.6 147.763C452.225 147 452.038 146.122 452.038 145.129C452.038 144.132 452.229 143.252 452.613 142.489C452.996 141.722 453.538 141.126 454.236 140.7C454.94 140.269 455.771 140.054 456.729 140.054C457.526 140.054 458.231 140.201 458.845 140.495C459.463 140.785 459.955 141.196 460.322 141.729C460.688 142.257 460.897 142.875 460.948 143.582H458.736C458.647 143.109 458.434 142.715 458.097 142.4C457.765 142.08 457.32 141.92 456.761 141.92C456.288 141.92 455.873 142.048 455.515 142.304C455.157 142.555 454.878 142.918 454.677 143.391C454.481 143.864 454.383 144.43 454.383 145.091C454.383 145.76 454.481 146.335 454.677 146.817C454.873 147.294 455.148 147.663 455.502 147.923C455.86 148.178 456.28 148.306 456.761 148.306C457.102 148.306 457.407 148.242 457.675 148.114C457.948 147.982 458.176 147.793 458.359 147.545C458.543 147.298 458.668 146.998 458.736 146.644H460.948C460.893 147.339 460.688 147.955 460.334 148.491C459.981 149.024 459.499 149.442 458.89 149.744C458.28 150.043 457.565 150.192 456.742 150.192ZM464.957 146.919L464.951 144.126H465.322L468.85 140.182H471.554L467.214 145.014H466.734L464.957 146.919ZM462.848 150V136.909H465.162V150H462.848ZM469.01 150L465.814 145.532L467.374 143.902L471.778 150H469.01Z" fill="#F2F2F2"/>
<rect x="677" y="58" width="64" height="64" rx="18" fill="#F6F8FD"/>
<g clip-path="url(#clip2_118_187)">
<path d="M715.602 75.1306C715.79 75.2395 715.935 75.4089 716.014 75.6112C716.094 75.8135 716.102 76.0366 716.038 76.2442L712.58 87.48H718.96C719.147 87.4799 719.331 87.5348 719.488 87.6377C719.644 87.7407 719.767 87.8873 719.842 88.0594C719.916 88.2316 719.938 88.4217 719.906 88.6064C719.873 88.791 719.787 88.9621 719.659 89.0986L704.299 105.419C704.15 105.577 703.952 105.68 703.738 105.711C703.523 105.742 703.304 105.7 703.117 105.591C702.929 105.482 702.784 105.312 702.705 105.11C702.626 104.908 702.618 104.685 702.682 104.478L706.14 93.24H699.76C699.572 93.2401 699.389 93.1852 699.232 93.0823C699.076 92.9793 698.953 92.8327 698.878 92.6606C698.804 92.4884 698.782 92.2983 698.814 92.1136C698.847 91.929 698.932 91.7579 699.061 91.6214L714.421 75.3014C714.57 75.1436 714.767 75.0406 714.981 75.0093C715.196 74.9779 715.414 75.02 715.602 75.1286V75.1306ZM701.981 91.32H707.44C707.59 91.32 707.738 91.3552 707.872 91.4229C708.007 91.4905 708.123 91.5887 708.212 91.7095C708.302 91.8304 708.361 91.9705 708.386 92.1186C708.412 92.2667 708.402 92.4186 708.358 92.5622L705.731 101.093L716.737 89.4H711.28C711.13 89.4 710.982 89.3648 710.847 89.2971C710.713 89.2295 710.597 89.1313 710.508 89.0104C710.418 88.8896 710.359 88.7495 710.333 88.6014C710.308 88.4533 710.318 88.3013 710.362 88.1578L712.989 79.6272L701.981 91.32Z" fill="#2B52D9"/>
</g>
<path d="M677.99 136.909V150H675.618V136.909H677.99ZM682.769 144.247V150H680.456V140.182H682.667V141.85H682.782C683.008 141.3 683.368 140.864 683.862 140.54C684.361 140.216 684.977 140.054 685.71 140.054C686.387 140.054 686.978 140.199 687.48 140.489C687.987 140.778 688.38 141.198 688.657 141.748C688.938 142.298 689.076 142.964 689.072 143.749V150H686.758V144.107C686.758 143.45 686.588 142.937 686.247 142.566C685.91 142.195 685.443 142.01 684.847 142.01C684.442 142.01 684.082 142.099 683.767 142.278C683.456 142.453 683.21 142.707 683.032 143.039C682.857 143.371 682.769 143.774 682.769 144.247ZM699.184 142.777L697.075 143.007C697.015 142.794 696.911 142.594 696.762 142.406C696.617 142.219 696.421 142.067 696.174 141.952C695.926 141.837 695.624 141.78 695.266 141.78C694.784 141.78 694.38 141.884 694.051 142.093C693.728 142.302 693.568 142.572 693.572 142.905C693.568 143.19 693.672 143.423 693.885 143.602C694.103 143.781 694.46 143.928 694.959 144.043L696.634 144.401C697.563 144.601 698.253 144.918 698.705 145.353C699.161 145.788 699.391 146.357 699.395 147.06C699.391 147.678 699.21 148.223 698.852 148.696C698.498 149.165 698.006 149.531 697.375 149.795C696.745 150.06 696.02 150.192 695.202 150.192C694 150.192 693.033 149.94 692.3 149.438C691.567 148.93 691.13 148.225 690.99 147.322L693.246 147.104C693.348 147.548 693.566 147.882 693.898 148.108C694.23 148.334 694.663 148.447 695.196 148.447C695.745 148.447 696.186 148.334 696.519 148.108C696.855 147.882 697.024 147.603 697.024 147.271C697.024 146.989 696.915 146.757 696.698 146.574C696.485 146.391 696.152 146.25 695.701 146.152L694.026 145.8C693.084 145.604 692.387 145.274 691.936 144.81C691.484 144.341 691.26 143.749 691.264 143.033C691.26 142.428 691.424 141.903 691.757 141.46C692.093 141.013 692.56 140.668 693.157 140.425C693.757 140.178 694.45 140.054 695.234 140.054C696.384 140.054 697.29 140.299 697.951 140.789C698.615 141.279 699.027 141.942 699.184 142.777ZM701.303 150V140.182H703.617V150H701.303ZM702.467 138.788C702.1 138.788 701.785 138.667 701.521 138.424C701.256 138.177 701.124 137.881 701.124 137.536C701.124 137.186 701.256 136.89 701.521 136.647C701.785 136.4 702.1 136.276 702.467 136.276C702.837 136.276 703.153 136.4 703.413 136.647C703.677 136.89 703.809 137.186 703.809 137.536C703.809 137.881 703.677 138.177 703.413 138.424C703.153 138.667 702.837 138.788 702.467 138.788ZM710.266 153.886C709.435 153.886 708.722 153.773 708.125 153.548C707.528 153.326 707.049 153.028 706.687 152.653C706.325 152.278 706.073 151.862 705.933 151.406L708.016 150.901C708.11 151.093 708.247 151.283 708.426 151.47C708.604 151.662 708.845 151.82 709.148 151.943C709.455 152.071 709.84 152.135 710.305 152.135C710.961 152.135 711.504 151.975 711.935 151.656C712.365 151.34 712.58 150.82 712.58 150.096V148.236H712.465C712.346 148.474 712.171 148.719 711.941 148.971C711.715 149.222 711.415 149.433 711.04 149.604C710.669 149.774 710.203 149.859 709.64 149.859C708.886 149.859 708.202 149.683 707.588 149.329C706.979 148.971 706.493 148.438 706.131 147.731C705.773 147.019 705.594 146.129 705.594 145.059C705.594 143.981 705.773 143.071 706.131 142.33C706.493 141.584 706.981 141.019 707.595 140.636C708.208 140.248 708.892 140.054 709.646 140.054C710.222 140.054 710.695 140.152 711.065 140.348C711.44 140.54 711.739 140.772 711.96 141.045C712.182 141.313 712.35 141.567 712.465 141.805H712.593V140.182H714.875V150.16C714.875 150.999 714.675 151.694 714.274 152.244C713.874 152.793 713.326 153.205 712.631 153.477C711.937 153.75 711.149 153.886 710.266 153.886ZM710.286 148.044C710.776 148.044 711.193 147.925 711.538 147.686C711.884 147.447 712.146 147.104 712.325 146.657C712.504 146.21 712.593 145.673 712.593 145.046C712.593 144.428 712.504 143.887 712.325 143.423C712.15 142.958 711.89 142.598 711.545 142.342C711.204 142.082 710.784 141.952 710.286 141.952C709.77 141.952 709.34 142.087 708.994 142.355C708.649 142.624 708.389 142.992 708.215 143.461C708.04 143.925 707.953 144.454 707.953 145.046C707.953 145.647 708.04 146.173 708.215 146.625C708.394 147.072 708.656 147.422 709.001 147.673C709.35 147.92 709.778 148.044 710.286 148.044ZM719.56 144.247V150H717.247V136.909H719.509V141.85H719.624C719.854 141.296 720.21 140.859 720.692 140.54C721.178 140.216 721.796 140.054 722.546 140.054C723.227 140.054 723.822 140.197 724.329 140.482C724.836 140.768 725.228 141.185 725.505 141.735C725.786 142.285 725.927 142.956 725.927 143.749V150H723.613V144.107C723.613 143.446 723.443 142.933 723.102 142.566C722.765 142.195 722.292 142.01 721.683 142.01C721.274 142.01 720.907 142.099 720.583 142.278C720.264 142.453 720.012 142.707 719.829 143.039C719.65 143.371 719.56 143.774 719.56 144.247ZM733.188 140.182V141.972H727.544V140.182H733.188ZM728.938 137.83H731.252V147.047C731.252 147.358 731.298 147.597 731.392 147.763C731.49 147.925 731.618 148.036 731.776 148.095C731.933 148.155 732.108 148.185 732.3 148.185C732.445 148.185 732.577 148.174 732.696 148.153C732.82 148.131 732.913 148.112 732.977 148.095L733.367 149.904C733.244 149.947 733.067 149.994 732.837 150.045C732.611 150.096 732.334 150.126 732.006 150.134C731.426 150.151 730.904 150.064 730.44 149.872C729.975 149.676 729.607 149.374 729.334 148.964C729.065 148.555 728.933 148.044 728.938 147.43V137.83ZM742.743 142.777L740.633 143.007C740.574 142.794 740.469 142.594 740.32 142.406C740.175 142.219 739.979 142.067 739.732 141.952C739.485 141.837 739.182 141.78 738.824 141.78C738.343 141.78 737.938 141.884 737.61 142.093C737.286 142.302 737.126 142.572 737.131 142.905C737.126 143.19 737.231 143.423 737.444 143.602C737.661 143.781 738.019 143.928 738.518 144.043L740.192 144.401C741.121 144.601 741.812 144.918 742.263 145.353C742.719 145.788 742.949 146.357 742.954 147.06C742.949 147.678 742.768 148.223 742.41 148.696C742.057 149.165 741.565 149.531 740.934 149.795C740.303 150.06 739.579 150.192 738.761 150.192C737.559 150.192 736.592 149.94 735.859 149.438C735.126 148.93 734.689 148.225 734.548 147.322L736.805 147.104C736.907 147.548 737.124 147.882 737.457 148.108C737.789 148.334 738.222 148.447 738.754 148.447C739.304 148.447 739.745 148.334 740.077 148.108C740.414 147.882 740.582 147.603 740.582 147.271C740.582 146.989 740.474 146.757 740.256 146.574C740.043 146.391 739.711 146.25 739.259 146.152L737.584 145.8C736.643 145.604 735.946 145.274 735.494 144.81C735.043 144.341 734.819 143.749 734.823 143.033C734.819 142.428 734.983 141.903 735.315 141.46C735.652 141.013 736.119 140.668 736.715 140.425C737.316 140.178 738.008 140.054 738.793 140.054C739.943 140.054 740.849 140.299 741.509 140.789C742.174 141.279 742.585 141.942 742.743 142.777Z" fill="#F2F2F2"/>
<path d="M280 105C279.448 105 279 105.448 279 106C279 106.552 279.448 107 280 107L280 105ZM298.707 106.707C299.098 106.317 299.098 105.683 298.707 105.293L292.343 98.9289C291.953 98.5384 291.319 98.5384 290.929 98.9289C290.538 99.3195 290.538 99.9526 290.929 100.343L296.586 106L290.929 111.657C290.538 112.047 290.538 112.681 290.929 113.071C291.319 113.462 291.953 113.462 292.343 113.071L298.707 106.707ZM280 107L298 107L298 105L280 105L280 107Z" fill="#F6F8FD" fill-opacity="0.5"/>
<path d="M560 105C559.448 105 559 105.448 559 106C559 106.552 559.448 107 560 107L560 105ZM578.707 106.707C579.098 106.317 579.098 105.683 578.707 105.293L572.343 98.9289C571.953 98.5384 571.319 98.5384 570.929 98.9289C570.538 99.3195 570.538 99.9526 570.929 100.343L576.586 106L570.929 111.657C570.538 112.047 570.538 112.681 570.929 113.071C571.319 113.462 571.953 113.462 572.343 113.071L578.707 106.707ZM560 107L578 107L578 105L560 105L560 107Z" fill="#F6F8FD" fill-opacity="0.5"/>
<defs>
<clipPath id="clip0_118_187">
<rect width="30.72" height="30.72" fill="white" transform="translate(132.621 74.6401)"/>
</clipPath>
<clipPath id="clip1_118_187">
<rect width="30.72" height="30.72" fill="white" transform="translate(415 75)"/>
</clipPath>
<clipPath id="clip2_118_187">
<rect width="30.72" height="30.72" fill="white" transform="translate(694 75)"/>
</clipPath>
</defs>
</svg>
