<svg width="32" height="32" viewBox="0 0 32 32" fill="none" xmlns="http://www.w3.org/2000/svg">
<path d="M2.22223 7.55556H29.7778V24.4444H2.22223V7.55556Z" fill="white"/>
<path d="M2.22223 7.55556H29.7778V9.77778H2.22223V7.55556ZM2.22223 11.5556H29.7778V13.3333H2.22223V11.5556ZM2.22223 15.1111H29.7778V16.8889H2.22223V15.1111Z" fill="#D22F27"/>
<path d="M2.22223 7.55556H16.4445V16.8889H2.22223V7.55556Z" fill="#1E50A0"/>
<path d="M2.22223 18.6667H29.7778V20.4444H2.22223V18.6667Z" fill="#D22F27"/>
<path d="M4.22224 10.5556C4.65179 10.5556 5.00001 10.2073 5.00001 9.77778C5.00001 9.34822 4.65179 9 4.22224 9C3.79268 9 3.44446 9.34822 3.44446 9.77778C3.44446 10.2073 3.79268 10.5556 4.22224 10.5556Z" fill="white"/>
<path d="M7.77778 10.5556C8.20733 10.5556 8.55556 10.2073 8.55556 9.77778C8.55556 9.34822 8.20733 9 7.77778 9C7.34822 9 7 9.34822 7 9.77778C7 10.2073 7.34822 10.5556 7.77778 10.5556Z" fill="white"/>
<path d="M11.3333 10.5556C11.7629 10.5556 12.1111 10.2073 12.1111 9.77778C12.1111 9.34822 11.7629 9 11.3333 9C10.9038 9 10.5555 9.34822 10.5555 9.77778C10.5555 10.2073 10.9038 10.5556 11.3333 10.5556Z" fill="white"/>
<path d="M14.8889 10.5556C15.3184 10.5556 15.6666 10.2073 15.6666 9.77778C15.6666 9.34822 15.3184 9 14.8889 9C14.4593 9 14.1111 9.34822 14.1111 9.77778C14.1111 10.2073 14.4593 10.5556 14.8889 10.5556Z" fill="white"/>
<path d="M13.1111 12.3333C13.5406 12.3333 13.8889 11.9851 13.8889 11.5556C13.8889 11.126 13.5406 10.7778 13.1111 10.7778C12.6815 10.7778 12.3333 11.126 12.3333 11.5556C12.3333 11.9851 12.6815 12.3333 13.1111 12.3333Z" fill="white"/>
<path d="M9.55555 12.3333C9.9851 12.3333 10.3333 11.9851 10.3333 11.5556C10.3333 11.126 9.9851 10.7778 9.55555 10.7778C9.12599 10.7778 8.77777 11.126 8.77777 11.5556C8.77777 11.9851 9.12599 12.3333 9.55555 12.3333Z" fill="white"/>
<path d="M6.00001 12.3333C6.42956 12.3333 6.77778 11.9851 6.77778 11.5556C6.77778 11.126 6.42956 10.7778 6.00001 10.7778C5.57045 10.7778 5.22223 11.126 5.22223 11.5556C5.22223 11.9851 5.57045 12.3333 6.00001 12.3333Z" fill="white"/>
<path d="M4.22224 14.1111C4.65179 14.1111 5.00001 13.7629 5.00001 13.3333C5.00001 12.9038 4.65179 12.5556 4.22224 12.5556C3.79268 12.5556 3.44446 12.9038 3.44446 13.3333C3.44446 13.7629 3.79268 14.1111 4.22224 14.1111Z" fill="white"/>
<path d="M7.77778 14.1111C8.20733 14.1111 8.55556 13.7629 8.55556 13.3333C8.55556 12.9038 8.20733 12.5556 7.77778 12.5556C7.34822 12.5556 7 12.9038 7 13.3333C7 13.7629 7.34822 14.1111 7.77778 14.1111Z" fill="white"/>
<path d="M11.3333 14.1111C11.7629 14.1111 12.1111 13.7629 12.1111 13.3333C12.1111 12.9038 11.7629 12.5556 11.3333 12.5556C10.9038 12.5556 10.5555 12.9038 10.5555 13.3333C10.5555 13.7629 10.9038 14.1111 11.3333 14.1111Z" fill="white"/>
<path d="M14.8889 14.1111C15.3184 14.1111 15.6666 13.7629 15.6666 13.3333C15.6666 12.9038 15.3184 12.5556 14.8889 12.5556C14.4593 12.5556 14.1111 12.9038 14.1111 13.3333C14.1111 13.7629 14.4593 14.1111 14.8889 14.1111Z" fill="white"/>
<path d="M13.1111 15.8889C13.5406 15.8889 13.8889 15.5407 13.8889 15.1111C13.8889 14.6816 13.5406 14.3333 13.1111 14.3333C12.6815 14.3333 12.3333 14.6816 12.3333 15.1111C12.3333 15.5407 12.6815 15.8889 13.1111 15.8889Z" fill="white"/>
<path d="M9.55555 15.8889C9.9851 15.8889 10.3333 15.5407 10.3333 15.1111C10.3333 14.6816 9.9851 14.3333 9.55555 14.3333C9.12599 14.3333 8.77777 14.6816 8.77777 15.1111C8.77777 15.5407 9.12599 15.8889 9.55555 15.8889Z" fill="white"/>
<path d="M6.00001 15.8889C6.42956 15.8889 6.77778 15.5407 6.77778 15.1111C6.77778 14.6816 6.42956 14.3333 6.00001 14.3333C5.57045 14.3333 5.22223 14.6816 5.22223 15.1111C5.22223 15.5407 5.57045 15.8889 6.00001 15.8889Z" fill="white"/>
<path d="M2.22223 22.2222H29.7778V24.4444H2.22223V22.2222Z" fill="#D22F27"/>
<path d="M2.22223 7.55556H29.7778V24.4444H2.22223V7.55556Z" stroke="black" stroke-width="2" stroke-linecap="round" stroke-linejoin="round"/>
</svg>
